<?xml version="1.0" encoding="utf-8"?>
<!-- Generator: Adobe Illustrator 24.1.0, SVG Export Plug-In . SVG Version: 6.00 Build 0)  -->
<svg version="1.1" id="Layer_1" xmlns="http://www.w3.org/2000/svg" xmlns:xlink="http://www.w3.org/1999/xlink" x="0px" y="0px"
	 viewBox="0 0 687 163" style="enable-background:new 0 0 687 163;" xml:space="preserve">
<style type="text/css">
	.st0{fill:#504DE1;}
</style>
<g>
	
		<ellipse transform="matrix(0.9785 -0.2064 0.2064 0.9785 -10.1492 29.8939)" class="st0" cx="138.19" cy="63.59" rx="9" ry="10.38"/>
	
		<ellipse transform="matrix(0.9785 -0.2064 0.2064 0.9785 -10.6451 34.7287)" class="st0" cx="161.11" cy="68.38" rx="7.02" ry="8.09"/>
	
		<ellipse transform="matrix(0.9785 -0.2064 0.2064 0.9785 -17.0608 30.7242)" class="st0" cx="138.71" cy="97.12" rx="9" ry="10.38"/>
	
		<ellipse transform="matrix(0.9785 -0.2064 0.2064 0.9785 -17.5567 35.5591)" class="st0" cx="161.63" cy="101.92" rx="7.02" ry="8.09"/>
	<g>
		<path class="st0" d="M114.57,53.6V33.17c0-4.47-3.53-7.45-6.66-5.63l-42.9,24.98c-1.7,0.99-2.8,3.2-2.8,5.63v17.29L114.57,53.6z"
			/>
		<path class="st0" d="M62.22,91.14v30.3c0,3.41,2.12,6.17,4.73,6.17h42.9c2.61,0,4.73-2.76,4.73-6.17V74.71L62.22,91.14z"/>
	</g>
</g>
<g>
	<path d="M199.41,69.88c4.87-4.98,11.07-7.47,18.59-7.47c10.07,0,17.43,3.34,22.08,10.01c2.57,3.75,3.95,7.51,4.14,11.28h-12.64
		c-0.8-2.9-1.84-5.09-3.09-6.56c-2.25-2.63-5.59-3.94-10.01-3.94c-4.5,0-8.05,1.85-10.65,5.56c-2.6,3.71-3.9,8.95-3.9,15.73
		c0,6.78,1.37,11.86,4.11,15.24c2.74,3.38,6.23,5.07,10.45,5.07c4.33,0,7.64-1.45,9.91-4.35c1.26-1.56,2.3-3.9,3.13-7.02h12.55
		c-1.08,6.59-3.85,11.95-8.3,16.08c-4.45,4.13-10.15,6.2-17.11,6.2c-8.6,0-15.37-2.79-20.29-8.37c-4.92-5.61-7.39-13.29-7.39-23.06
		C191.01,83.74,193.81,75.6,199.41,69.88z"/>
	<path d="M277.37,78.27c0.15,0.01,0.49,0.03,1.01,0.06v11.98c-0.74-0.08-1.39-0.14-1.97-0.16c-0.58-0.03-1.04-0.04-1.39-0.04
		c-4.7,0-7.86,1.53-9.48,4.59c-0.9,1.72-1.35,4.38-1.35,7.96v21.38H252.4V79.32h11.16v7.79c1.8-2.98,3.38-5.02,4.72-6.11
		c2.19-1.83,5.03-2.75,8.53-2.75C277.03,78.25,277.22,78.26,277.37,78.27z"/>
	<path d="M313.53,80.23c3.12,1.4,5.7,3.6,7.73,6.62c1.83,2.66,3.02,5.74,3.56,9.24c0.32,2.05,0.44,5.01,0.38,8.88h-32.57
		c0.18,4.49,1.74,7.63,4.68,9.44c1.79,1.12,3.94,1.68,6.45,1.68c2.66,0,4.83-0.68,6.49-2.05c0.91-0.74,1.71-1.76,2.4-3.08h11.94
		c-0.32,2.65-1.76,5.35-4.33,8.08c-4.01,4.35-9.61,6.52-16.82,6.52c-5.95,0-11.2-1.83-15.75-5.5c-4.55-3.67-6.82-9.64-6.82-17.9
		c0-7.75,2.05-13.69,6.16-17.82c4.1-4.13,9.44-6.2,15.99-6.2C306.9,78.13,310.41,78.83,313.53,80.23z M296.03,90.33
		c-1.65,1.7-2.69,4.01-3.11,6.92h20.14c-0.21-3.1-1.25-5.46-3.12-7.07c-1.86-1.61-4.18-2.41-6.93-2.41
		C300.01,87.77,297.69,88.63,296.03,90.33z"/>
	<path d="M353.99,80.04c2.11,1.19,3.81,2.84,5.13,4.94V63.65h11.85v60.39h-11.36v-6.2c-1.67,2.65-3.57,4.58-5.71,5.79
		c-2.13,1.2-4.79,1.8-7.96,1.8c-5.23,0-9.62-2.11-13.19-6.34c-3.57-4.23-5.35-9.65-5.35-16.27c0-7.63,1.76-13.63,5.27-18.01
		c3.52-4.38,8.21-6.56,14.09-6.56C349.47,78.25,351.88,78.85,353.99,80.04z M356.86,111.9c1.73-2.46,2.59-5.65,2.59-9.56
		c0-5.47-1.38-9.38-4.15-11.73c-1.69-1.42-3.66-2.14-5.9-2.14c-3.42,0-5.93,1.29-7.53,3.88c-1.6,2.58-2.4,5.79-2.4,9.62
		c0,4.13,0.81,7.43,2.44,9.91c1.63,2.48,4.1,3.71,7.41,3.71C352.62,115.59,355.14,114.36,356.86,111.9z"/>
	<path d="M387.39,73.99h-1.07c-2.98,0-5.4-2.42-5.4-5.4v0c0-2.98,2.42-5.4,5.4-5.4h1.07c2.98,0,5.4,2.42,5.4,5.4v0
		C392.78,71.57,390.37,73.99,387.39,73.99z M380.92,79.32h11.86v44.72h-11.86V79.32z"/>
	<path d="M398.67,88.06v-8.33h6.24V67.26h11.57v12.47h7.26v8.33h-7.26v23.63c0,1.83,0.23,2.97,0.7,3.43
		c0.46,0.45,1.89,0.68,4.27,0.68c0.36,0,0.73-0.01,1.13-0.02c0.4-0.01,0.78-0.03,1.17-0.06v8.74l-5.54,0.2
		c-5.53,0.19-9.3-0.76-11.32-2.87c-1.31-1.34-1.97-3.41-1.97-6.19V88.06H398.67z"/>
	<path class="st0" d="M477.91,118.67c-4.57,4.7-11.17,7.06-19.82,7.06c-8.64,0-15.25-2.35-19.82-7.06
		c-6.13-5.77-9.19-14.08-9.19-24.94c0-11.08,3.06-19.39,9.19-24.94c4.57-4.7,11.17-7.06,19.82-7.06c8.64,0,15.25,2.35,19.82,7.06
		c6.1,5.55,9.15,13.87,9.15,24.94C487.06,104.58,484.01,112.9,477.91,118.67z M470.02,109.48c2.94-3.69,4.41-8.95,4.41-15.76
		c0-6.78-1.47-12.03-4.41-15.73c-2.94-3.71-6.91-5.56-11.92-5.56c-5.01,0-9,1.85-11.98,5.54c-2.98,3.69-4.47,8.95-4.47,15.76
		s1.49,12.06,4.47,15.76c2.98,3.69,6.98,5.54,11.98,5.54C463.1,115.01,467.08,113.17,470.02,109.48z"/>
	<path class="st0" d="M518.63,80.04c2.11,1.19,3.81,2.84,5.13,4.94V63.65h11.86v60.39h-11.36v-6.2c-1.67,2.65-3.57,4.58-5.7,5.79
		s-4.79,1.8-7.96,1.8c-5.22,0-9.62-2.11-13.19-6.34c-3.57-4.23-5.36-9.65-5.36-16.27c0-7.63,1.76-13.63,5.27-18.01
		c3.51-4.38,8.21-6.56,14.09-6.56C514.12,78.25,516.52,78.85,518.63,80.04z M521.5,111.9c1.72-2.46,2.58-5.65,2.58-9.56
		c0-5.47-1.38-9.38-4.14-11.73c-1.7-1.42-3.67-2.14-5.91-2.14c-3.42,0-5.93,1.29-7.53,3.88c-1.6,2.58-2.4,5.79-2.4,9.62
		c0,4.13,0.81,7.43,2.44,9.91c1.63,2.48,4.1,3.71,7.41,3.71C517.26,115.59,519.78,114.36,521.5,111.9z"/>
	<path class="st0" d="M569.12,80.04c2.11,1.19,3.81,2.84,5.13,4.94V63.65h11.86v60.39h-11.36v-6.2c-1.67,2.65-3.57,4.58-5.7,5.79
		c-2.13,1.2-4.79,1.8-7.96,1.8c-5.22,0-9.62-2.11-13.19-6.34c-3.57-4.23-5.36-9.65-5.36-16.27c0-7.63,1.76-13.63,5.27-18.01
		c3.51-4.38,8.21-6.56,14.09-6.56C564.6,78.25,567.01,78.85,569.12,80.04z M571.99,111.9c1.72-2.46,2.58-5.65,2.58-9.56
		c0-5.47-1.38-9.38-4.14-11.73c-1.7-1.42-3.66-2.14-5.91-2.14c-3.42,0-5.93,1.29-7.53,3.88c-1.6,2.58-2.4,5.79-2.4,9.62
		c0,4.13,0.81,7.43,2.44,9.91c1.63,2.48,4.1,3.71,7.41,3.71C567.75,115.59,570.26,114.36,571.99,111.9z"/>
	<path class="st0" d="M604.95,109.76c0.25,2.08,0.78,3.56,1.61,4.43c1.46,1.56,4.15,2.34,8.08,2.34c2.31,0,4.14-0.34,5.5-1.03
		c1.36-0.68,2.04-1.71,2.04-3.08c0-1.31-0.55-2.31-1.64-2.99c-1.1-0.68-5.17-1.86-12.23-3.53c-5.08-1.26-8.66-2.83-10.74-4.72
		c-2.08-1.86-3.12-4.54-3.12-8.04c0-4.13,1.62-7.68,4.87-10.65c3.25-2.97,7.82-4.45,13.71-4.45c5.59,0,10.15,1.12,13.67,3.34
		c3.52,2.23,5.54,6.08,6.06,11.55h-11.69c-0.17-1.5-0.59-2.69-1.27-3.57c-1.29-1.59-3.49-2.38-6.58-2.38c-2.55,0-4.37,0.4-5.45,1.19
		c-1.08,0.79-1.62,1.72-1.62,2.79c0,1.34,0.58,2.31,1.73,2.91c1.15,0.63,5.22,1.71,12.21,3.24c4.66,1.1,8.15,2.75,10.48,4.96
		c2.3,2.24,3.45,5.05,3.45,8.41c0,4.43-1.65,8.05-4.95,10.85c-3.3,2.8-8.41,4.21-15.31,4.21c-7.04,0-12.24-1.48-15.6-4.45
		c-3.36-2.97-5.04-6.75-5.04-11.34H604.95z"/>
</g>
</svg>
